# Blender 4.4.0
# www.blender.org
mtllib ender.mtl
o Enderman
v -0.098918 0.360607 0.063433
v 0.104282 0.360607 0.063433
v -0.098918 0.360607 -0.038167
v 0.104282 0.360607 -0.038167
v -0.098918 0.665407 0.063433
v 0.104282 0.665407 0.063433
v -0.098918 0.665407 -0.038167
v 0.104282 0.665407 -0.038167
v -0.098918 0.665407 0.114233
v 0.104282 0.665407 0.114233
v -0.098918 0.665407 -0.088967
v 0.104282 0.665407 -0.088967
v -0.098918 0.868607 0.114233
v 0.104282 0.868607 0.114233
v -0.098918 0.868607 -0.088967
v 0.104282 0.868607 -0.088967
v -0.216034 -0.091479 -0.012767
v -0.165427 -0.095907 -0.012767
v -0.149621 0.667621 -0.012767
v -0.099014 0.663193 -0.012767
v -0.216034 -0.091479 0.038033
v -0.165427 -0.095907 0.038033
v -0.149621 0.667621 0.038033
v -0.099014 0.663193 0.038033
v -0.073518 -0.401393 -0.012767
v -0.022718 -0.401393 -0.012767
v -0.073518 0.360607 -0.012767
v -0.022718 0.360607 -0.012767
v -0.073518 -0.401393 0.038033
v -0.022718 -0.401393 0.038033
v -0.073518 0.360607 0.038033
v -0.022718 0.360607 0.038033
v 0.078882 -0.401393 -0.012767
v 0.028082 -0.401393 -0.012767
v 0.078882 0.360607 -0.012767
v 0.028082 0.360607 -0.012767
v 0.078882 -0.401393 0.038033
v 0.028082 -0.401393 0.038033
v 0.078882 0.360607 0.038033
v 0.028082 0.360607 0.038033
v 0.221398 -0.091479 -0.012767
v 0.170792 -0.095907 -0.012767
v 0.154986 0.667621 -0.012767
v 0.104379 0.663193 -0.012767
v 0.221398 -0.091479 0.038033
v 0.170792 -0.095907 0.038033
v 0.154986 0.667621 0.038033
v 0.104379 0.663193 0.038033
vn -0.0000 -1.0000 -0.0000
vn -0.0000 1.0000 -0.0000
vn -0.0000 -0.0000 1.0000
vn 1.0000 -0.0000 -0.0000
vn -0.0000 -0.0000 -1.0000
vn -1.0000 -0.0000 -0.0000
vn -0.0872 -0.9962 -0.0000
vn 0.9962 -0.0872 -0.0000
vn 0.0872 0.9962 -0.0000
vn -0.9962 0.0872 -0.0000
vn 0.0872 -0.9962 -0.0000
vn -0.9962 -0.0872 -0.0000
vn -0.0872 0.9962 -0.0000
vn 0.9962 0.0872 -0.0000
vt 0.687500 0.750000
vt 0.812375 0.687500
vt 0.687500 0.687500
vt 0.562500 0.750000
vt 0.562500 0.687500
vt 0.687500 0.500000
vt 0.562500 0.500000
vt 0.750000 0.500000
vt 0.875000 0.500000
vt 0.750000 0.687500
vt 0.500000 0.687500
vt 0.500000 0.500000
vt 0.375000 1.000000
vt 0.250000 0.875000
vt 0.250000 1.000000
vt 0.125000 1.000000
vt 0.125000 0.875000
vt 0.250000 0.750000
vt 0.125000 0.750000
vt 0.375000 0.750000
vt 0.500000 0.750000
vt 0.375000 0.875000
vt 0.000000 0.875000
vt 0.000000 0.750000
vt 1.000000 0.968722
vt 0.968760 0.500000
vt 1.000000 0.500000
vt 0.937500 0.500000
vt 0.906254 0.968722
vt 0.906254 0.500000
vt 0.968741 1.000000
vt 0.937500 0.968722
vt 0.937500 1.000000
vt 0.968760 0.968722
vt 0.906450 1.000000
vt 0.875000 0.968722
vt 0.812500 0.750000
vt 0.875000 0.687500
vt 0.500000 0.875000
vt 0.125000 0.875000
s 1
usemtl 02_-_Default
f 3/1/1 2/2/1 1/3/1
f 6/3/2 7/4/2 5/5/2
f 2/6/3 5/5/3 1/7/3
f 4/8/4 6/3/4 2/6/4
f 3/9/5 8/10/5 4/8/5
f 1/7/6 7/11/6 3/12/6
f 11/13/1 10/14/1 9/15/1
f 14/14/2 15/16/2 13/17/2
f 10/18/3 13/17/3 9/19/3
f 12/20/4 14/14/4 10/18/4
f 11/21/5 16/22/5 12/20/5
f 9/19/6 15/23/6 11/24/6
f 19/25/5 18/26/5 17/27/5
f 22/28/3 23/29/3 21/30/3
f 18/31/7 21/32/7 17/33/7
f 20/34/8 22/28/8 18/26/8
f 19/35/9 24/32/9 20/33/9
f 19/36/10 21/30/10 23/29/10
f 27/25/5 26/26/5 25/27/5
f 30/28/3 31/29/3 29/30/3
f 26/31/1 29/32/1 25/33/1
f 28/34/4 30/28/4 26/26/4
f 27/35/2 32/32/2 28/33/2
f 25/9/6 31/29/6 27/36/6
f 34/26/5 35/25/5 33/27/5
f 39/29/3 38/28/3 37/30/3
f 37/32/1 34/31/1 33/33/1
f 38/28/6 36/34/6 34/26/6
f 40/32/2 35/35/2 36/33/2
f 39/29/4 33/9/4 35/36/4
f 42/26/5 43/25/5 41/27/5
f 47/29/3 46/28/3 45/30/3
f 45/32/11 42/31/11 41/33/11
f 46/28/12 44/34/12 42/26/12
f 48/32/13 43/35/13 44/33/13
f 43/36/14 45/30/14 41/9/14
f 3/1/1 4/37/1 2/2/1
f 6/3/2 8/1/2 7/4/2
f 2/6/3 6/3/3 5/5/3
f 4/8/4 8/10/4 6/3/4
f 3/9/5 7/38/5 8/10/5
f 1/7/6 5/5/6 7/11/6
f 11/13/1 12/22/1 10/14/1
f 14/14/2 16/15/2 15/16/2
f 10/18/3 14/14/3 13/17/3
f 12/20/4 16/22/4 14/14/4
f 11/21/5 15/39/5 16/22/5
f 9/19/6 13/40/6 15/23/6
f 19/25/5 20/34/5 18/26/5
f 22/28/3 24/32/3 23/29/3
f 18/31/7 22/34/7 21/32/7
f 20/34/8 24/32/8 22/28/8
f 19/35/9 23/29/9 24/32/9
f 19/36/10 17/9/10 21/30/10
f 27/25/5 28/34/5 26/26/5
f 30/28/3 32/32/3 31/29/3
f 26/31/1 30/34/1 29/32/1
f 28/34/4 32/32/4 30/28/4
f 27/35/2 31/29/2 32/32/2
f 25/9/6 29/30/6 31/29/6
f 34/26/5 36/34/5 35/25/5
f 39/29/3 40/32/3 38/28/3
f 37/32/1 38/34/1 34/31/1
f 38/28/6 40/32/6 36/34/6
f 40/32/2 39/29/2 35/35/2
f 39/29/4 37/30/4 33/9/4
f 42/26/5 44/34/5 43/25/5
f 47/29/3 48/32/3 46/28/3
f 45/32/11 46/34/11 42/31/11
f 46/28/12 48/32/12 44/34/12
f 48/32/13 47/29/13 43/35/13
f 43/36/14 47/29/14 45/30/14
