# Blender 4.3.2
# www.blender.org
mtllib tablero.mtl
o Tablero
v -1.800000 -0.201685 1.800000
v -1.800000 0.201685 1.800000
v -1.800000 -0.201685 -1.800000
v -1.800000 0.201685 -1.800000
v 1.800000 -0.201685 1.800000
v 1.800000 0.201685 1.800000
v 1.800000 -0.201685 -1.800000
v 1.800000 0.201685 -1.800000
v 0.000000 -0.201685 -1.800000
v 0.000000 0.201685 -1.800000
v 0.000000 -0.201685 1.800000
v 0.000000 0.201685 1.800000
v -1.600000 0.203702 1.600000
v 1.600000 0.203702 1.600000
v -1.600000 0.203702 -1.600000
v 1.600000 0.203702 -1.600000
v -1.200000 0.203702 1.600000
v -0.800000 0.203702 1.600000
v -0.400000 0.203702 1.600000
v 0.000000 0.203702 1.600000
v 0.400000 0.203702 1.600000
v 0.800000 0.203702 1.600000
v 1.200000 0.203702 1.600000
v 1.200000 0.203702 -1.600000
v 0.800000 0.203702 -1.600000
v 0.400000 0.203702 -1.600000
v 0.000000 0.203702 -1.600000
v -0.400000 0.203702 -1.600000
v -0.800000 0.203702 -1.600000
v -1.200000 0.203702 -1.600000
v -1.600000 0.203702 -1.200000
v -1.600000 0.203702 -0.800000
v -1.600000 0.203702 -0.400000
v -1.600000 0.203702 0.000000
v -1.600000 0.203702 0.400000
v -1.600000 0.203702 0.800000
v -1.600000 0.203702 1.200000
v 1.600000 0.203702 1.200000
v 1.600000 0.203702 0.800000
v 1.600000 0.203702 0.400000
v 1.600000 0.203702 0.000000
v 1.600000 0.203702 -0.400000
v 1.600000 0.203702 -0.800000
v 1.600000 0.203702 -1.200000
v -1.200000 0.203702 1.200000
v -1.200000 0.203702 0.800000
v -1.200000 0.203702 0.400000
v -1.200000 0.203702 0.000000
v -1.200000 0.203702 -0.400000
v -1.200000 0.203702 -0.800000
v -1.200000 0.203702 -1.200000
v -0.800000 0.203702 1.200000
v -0.800000 0.203702 0.800000
v -0.800000 0.203702 0.400000
v -0.800000 0.203702 0.000000
v -0.800000 0.203702 -0.400000
v -0.800000 0.203702 -0.800000
v -0.800000 0.203702 -1.200000
v -0.400000 0.203702 1.200000
v -0.400000 0.203702 0.800000
v -0.400000 0.203702 0.400000
v -0.400000 0.203702 0.000000
v -0.400000 0.203702 -0.400000
v -0.400000 0.203702 -0.800000
v -0.400000 0.203702 -1.200000
v 0.000000 0.203702 1.200000
v 0.000000 0.203702 0.800000
v 0.000000 0.203702 0.400000
v 0.000000 0.203702 0.000000
v 0.000000 0.203702 -0.400000
v 0.000000 0.203702 -0.800000
v 0.000000 0.203702 -1.200000
v 0.400000 0.203702 1.200000
v 0.400000 0.203702 0.800000
v 0.400000 0.203702 0.400000
v 0.400000 0.203702 0.000000
v 0.400000 0.203702 -0.400000
v 0.400000 0.203702 -0.800000
v 0.400000 0.203702 -1.200000
v 0.800000 0.203702 1.200000
v 0.800000 0.203702 0.800000
v 0.800000 0.203702 0.400000
v 0.800000 0.203702 0.000000
v 0.800000 0.203702 -0.400000
v 0.800000 0.203702 -0.800000
v 0.800000 0.203702 -1.200000
v 1.200000 0.203702 1.200000
v 1.200000 0.203702 0.800000
v 1.200000 0.203702 0.400000
v 1.200000 0.203702 0.000000
v 1.200000 0.203702 -0.400000
v 1.200000 0.203702 -0.800000
v 1.200000 0.203702 -1.200000
vn -1.0000 -0.0000 -0.0000
vn -0.0000 -0.0000 -1.0000
vn 1.0000 -0.0000 -0.0000
vn -0.0000 -0.0000 1.0000
vn -0.0000 -1.0000 -0.0000
vn -0.0000 1.0000 -0.0000
vt 1.002151 0.757450
vt 1.002151 0.867553
vt 0.000330 0.867553
vt 0.000330 0.757450
vt 0.375000 0.375000
vt 0.625000 0.375000
vt 0.625000 0.500000
vt 0.375000 0.500000
vt 0.625000 0.750000
vt 0.375000 0.750000
vt 1.000633 0.757963
vt 1.001185 0.868032
vt -0.000633 0.868308
vt -0.001185 0.758239
vt 0.250000 0.500000
vt 0.250000 0.750000
vt -2.927714 -3.059827
vt 3.942118 -3.041392
vt 3.923682 4.052891
vt -2.946150 4.062109
vt 0.750000 0.500000
vt 0.750000 0.750000
vt 0.125000 0.500000
vt 0.125000 0.750000
vt 0.625000 0.875000
vt 0.375000 0.875000
vt 1.000347 0.754909
vt 1.000347 0.863614
vt -0.002827 0.863614
vt -0.002827 0.754909
vt 0.001866 -0.003234
vt 1.003888 -0.003234
vt 1.003888 1.003789
vt 0.001866 1.003789
vt -2.002897 3.879345
vt -0.876448 3.879345
vt -0.876448 5.005794
vt -2.002897 5.005794
vt -0.013988 0.015959
vt 0.995238 0.015959
vt 0.995238 1.025185
vt -0.013988 1.025185
vt 0.250000 3.879345
vt 1.376448 3.879345
vt 1.376448 5.005794
vt 0.250000 5.005794
vt 0.006533 0.008296
vt 0.993467 0.008296
vt 0.993467 0.995231
vt 0.006533 0.995231
vt 0.500000 0.875000
vt 0.625000 1.000000
vt 0.500000 1.000000
vt 0.750000 0.875000
vt 0.750000 1.000000
vt 0.875000 0.875000
vt 0.875000 1.000000
vt 0.750000 0.000000
vt 0.875000 0.000000
vt 0.875000 0.125000
vt 0.750000 0.125000
vt 0.875000 0.250000
vt 0.750000 0.250000
vt 0.875000 0.375000
vt 0.750000 0.375000
vt 0.875000 0.500000
vt 0.875000 0.625000
vt 0.750000 0.625000
vt 0.875000 0.750000
vt 0.625000 0.000000
vt 0.625000 0.125000
vt 0.625000 0.250000
vt 0.625000 0.625000
vt 0.500000 0.000000
vt 0.500000 0.125000
vt 0.500000 0.250000
vt 0.500000 0.375000
vt 0.500000 0.500000
vt 0.500000 0.625000
vt 0.500000 0.750000
vt 1.376448 -4.005794
vt 2.502897 -4.005794
vt 2.502897 -2.879345
vt 1.376448 -2.879345
vt 0.001935 0.009184
vt 0.998065 0.009184
vt 0.998065 1.005314
vt 0.001935 1.005314
vt 1.376448 -1.752897
vt 2.502897 -1.752897
vt 2.502897 -0.626448
vt 1.376448 -0.626448
vt 0.012694 0.003495
vt 0.993556 0.003495
vt 0.993556 0.984357
vt 0.012694 0.984357
vt 1.376448 0.500000
vt 2.502897 0.500000
vt 2.502897 1.626448
vt 1.376448 1.626448
vt 1.000751 1.000183
vt 0.011749 1.000183
vt 0.011749 0.011181
vt 1.000751 0.011181
vt 1.376448 2.752897
vt 2.502897 2.752897
vt 2.502897 3.879345
vt 0.996484 0.991595
vt 0.009766 0.991595
vt 0.009766 0.004878
vt 0.996484 0.004878
vt 0.250000 -2.879345
vt 0.250000 -1.752897
vt -0.001640 0.008353
vt 1.001640 0.008353
vt 1.001640 1.011631
vt -0.001640 1.011631
vt 0.250000 -0.626448
vt 0.007412 0.007225
vt 0.998838 0.007225
vt 0.998838 0.998652
vt 0.007412 0.998652
vt 0.250000 1.626448
vt 0.250000 2.752897
vt 0.007059 0.006100
vt 1.005441 0.006100
vt 1.005441 1.004480
vt 0.007059 1.004480
vt -0.876448 -4.005794
vt 0.250000 -4.005794
vt -0.876448 -2.879345
vt -0.024213 0.004922
vt 0.986712 0.004922
vt 0.986712 1.015846
vt -0.024213 1.015846
vt -0.876448 -1.752897
vt -0.876448 -0.626448
vt 0.004764 -0.001290
vt 1.007736 -0.001290
vt 1.007736 1.001682
vt 0.004764 1.001682
vt -0.876448 0.500000
vt -0.876448 1.626448
vt 0.008918 0.005205
vt 0.997332 0.005205
vt 0.997332 0.993619
vt 0.008918 0.993619
vt -0.876448 2.752897
vt 0.004273 0.008779
vt 0.995727 0.008779
vt 0.995727 1.000233
vt 0.004273 1.000233
vt -2.002897 -2.879345
vt -2.002897 -1.752897
vt 0.004385 0.011242
vt 0.995615 0.011242
vt 0.995615 1.002472
vt 0.004385 1.002472
vt -2.002897 -0.626448
vt -2.002897 0.500000
vt 0.004523 0.001202
vt 1.001726 0.001202
vt 1.001726 0.998406
vt 0.004523 0.998406
vt -2.002897 1.626448
vt -2.002897 2.752897
vt -0.010141 -0.001736
vt 0.997641 -0.001736
vt 0.997641 1.006046
vt -0.010141 1.006046
vt 1.000000 0.000000
vt 1.000000 0.125000
vt 1.000000 0.250000
vt 1.000000 0.375000
vt 1.000000 0.500000
vt 1.000000 0.625000
vt 1.000000 0.750000
vt 1.000000 0.875000
s 0
usemtl Color
f 9/5/2 10/6/2 8/7/2 7/8/2
f 7/8/3 8/7/3 6/9/3 5/10/3
f 8/7/6 10/21/6 12/22/6 6/9/6
f 5/10/4 6/9/4 12/25/4 11/26/4
usemtl azul
f 93/31/6 44/32/6 16/33/6 24/34/6
f 79/25/6 86/54/6 25/55/6 26/52/6
f 22/58/6 23/59/6 87/60/6 80/61/6
f 81/63/6 88/62/6 89/64/6 82/65/6
f 83/21/6 90/66/6 91/67/6 84/68/6
f 85/22/6 92/69/6 93/56/6 86/54/6
f 73/71/6 80/61/6 81/63/6 74/72/6
f 75/6/6 82/65/6 83/21/6 76/7/6
f 77/73/6 84/68/6 85/22/6 78/9/6
f 20/74/6 21/70/6 73/71/6 66/75/6
f 67/76/6 74/72/6 75/6/6 68/77/6
f 69/78/6 76/7/6 77/73/6 70/79/6
f 71/80/6 78/9/6 79/25/6 72/51/6
f 87/60/6 38/172/6 39/173/6 88/62/6
f 89/64/6 40/174/6 41/175/6 90/66/6
f 91/67/6 42/176/6 43/177/6 92/69/6
usemtl Base
f 9/15/5 7/8/5 5/10/5 11/16/5
f 3/23/5 9/15/5 11/16/5 1/24/5
f 72/51/6 79/25/6 26/52/6 27/53/6
f 86/54/6 93/56/6 24/57/6 25/55/6
f 80/61/6 87/60/6 88/62/6 81/63/6
f 82/65/6 89/64/6 90/66/6 83/21/6
f 84/68/6 91/67/6 92/69/6 85/22/6
f 21/70/6 22/58/6 80/61/6 73/71/6
f 74/72/6 81/63/6 82/65/6 75/6/6
f 76/7/6 83/21/6 84/68/6 77/73/6
f 78/9/6 85/22/6 86/54/6 79/25/6
f 66/75/6 73/71/6 74/72/6 67/76/6
f 68/77/6 75/6/6 76/7/6 69/78/6
f 70/79/6 77/73/6 78/9/6 71/80/6
f 23/59/6 14/171/6 38/172/6 87/60/6
f 88/62/6 39/173/6 40/174/6 89/64/6
f 90/66/6 41/175/6 42/176/6 91/67/6
f 92/69/6 43/177/6 44/178/6 93/56/6
usemtl Pasto
f 10/17/6 4/18/6 2/19/6 12/20/6
usemtl Tierra
f 1/1/1 2/2/1 4/3/1 3/4/1
f 11/11/4 12/12/4 2/13/4 1/14/4
f 3/27/2 4/28/2 10/29/2 9/30/2
usemtl Madera1
f 51/39/6 58/40/6 29/41/6 30/42/6
f 65/47/6 72/48/6 27/49/6 28/50/6
f 59/85/6 66/86/6 67/87/6 60/88/6
f 61/93/6 68/94/6 69/95/6 62/96/6
f 63/101/6 70/102/6 71/103/6 64/104/6
f 18/108/6 19/109/6 59/110/6 52/111/6
f 53/114/6 60/115/6 61/116/6 54/117/6
f 55/119/6 62/120/6 63/121/6 56/122/6
f 57/125/6 64/126/6 65/127/6 58/128/6
f 45/132/6 52/133/6 53/134/6 46/135/6
f 47/138/6 54/139/6 55/140/6 48/141/6
f 49/144/6 56/145/6 57/146/6 50/147/6
f 13/149/6 17/150/6 45/151/6 37/152/6
f 36/155/6 46/156/6 47/157/6 35/158/6
f 34/161/6 48/162/6 49/163/6 33/164/6
f 32/167/6 50/168/6 51/169/6 31/170/6
usemtl Material
f 31/35/6 51/36/6 30/37/6 15/38/6
f 58/43/6 65/44/6 28/45/6 29/46/6
f 19/81/6 20/82/6 66/83/6 59/84/6
f 60/89/6 67/90/6 68/91/6 61/92/6
f 62/97/6 69/98/6 70/99/6 63/100/6
f 64/105/6 71/106/6 72/107/6 65/44/6
f 52/112/6 59/84/6 60/89/6 53/113/6
f 54/118/6 61/92/6 62/97/6 55/15/6
f 56/123/6 63/100/6 64/105/6 57/124/6
f 17/129/6 18/130/6 52/112/6 45/131/6
f 46/136/6 53/113/6 54/118/6 47/137/6
f 48/142/6 55/15/6 56/123/6 49/143/6
f 50/148/6 57/124/6 58/43/6 51/36/6
f 37/153/6 45/131/6 46/136/6 36/154/6
f 35/159/6 47/137/6 48/142/6 34/160/6
f 33/165/6 49/143/6 50/148/6 32/166/6
